<svg width="1200" height="320" viewBox="0 0 1200 320" fill="none" xmlns="http://www.w3.org/2000/svg" role="img" aria-label="Chicago Tech Army Themed Banner">
  <defs>
    <linearGradient id="bg" x1="0" y1="0" x2="1200" y2="320" gradientUnits="userSpaceOnUse">
      <stop stop-color="#1E2A1A"/>
      <stop offset="1" stop-color="#344A2A"/>
    </linearGradient>
    <linearGradient id="glass" x1="0" y1="0" x2="1200" y2="0" gradientUnits="userSpaceOnUse">
      <stop stop-color="#556B2F" stop-opacity="0.15"/>
      <stop offset="1" stop-color="#D2B48C" stop-opacity="0.12"/>
    </linearGradient>
  </defs>

  <rect width="1200" height="320" rx="28" fill="url(#bg)"/>
  <rect x="20" y="20" width="1160" height="280" rx="22" fill="url(#glass)" stroke="#D2B48C" stroke-opacity="0.35"/>

  <path d="M0 245C110 215 170 265 270 235C360 208 425 230 525 200C630 168 715 225 820 188C925 150 995 210 1200 158V320H0V245Z" fill="#556B2F"/>
  <path d="M0 272C130 238 192 292 300 258C390 230 468 255 565 220C662 185 756 245 860 208C960 175 1038 235 1200 190V320H0V272Z" fill="#6B7D3A" opacity="0.8"/>
  <path d="M0 292C120 266 210 310 330 288C445 266 505 286 620 262C730 240 845 300 965 270C1065 245 1125 270 1200 252V320H0V292Z" fill="#B7A06D" opacity="0.55"/>

  <path d="M110 232V148H150V232H110Z" fill="#D2B48C"/>
  <path d="M150 232V120H192V232H150Z" fill="#C7B28B"/>
  <path d="M192 232V164H240V232H192Z" fill="#A89160"/>
  <path d="M240 232V98H288V232H240Z" fill="#D2B48C"/>
  <path d="M288 232V136H338V232H288Z" fill="#C7B28B"/>
  <path d="M338 232V112H390V232H338Z" fill="#A89160"/>
  <path d="M390 232V156H444V232H390Z" fill="#D2B48C"/>
  <path d="M444 232V88H500V232H444Z" fill="#C7B28B"/>
  <path d="M500 232V132H556V232H500Z" fill="#A89160"/>
  <path d="M556 232V72H612V232H556Z" fill="#D2B48C"/>
  <path d="M612 232V124H666V232H612Z" fill="#C7B28B"/>
  <path d="M666 232V92H720V232H666Z" fill="#A89160"/>
  <path d="M720 232V146H774V232H720Z" fill="#D2B48C"/>
  <path d="M774 232V106H832V232H774Z" fill="#C7B28B"/>
  <path d="M832 232V160H886V232H832Z" fill="#A89160"/>
  <path d="M886 232V118H942V232H886Z" fill="#D2B48C"/>
  <path d="M942 232V150H998V232H942Z" fill="#C7B28B"/>
  <path d="M998 232V96H1056V232H998Z" fill="#A89160"/>
  <path d="M1056 232V166H1110V232H1056Z" fill="#D2B48C"/>
  <path d="M1110 232V130H1150V232H1110Z" fill="#C7B28B"/>

  <circle cx="1028" cy="96" r="34" fill="#D2B48C"/>
  <path d="M1028 63L1036 88L1060 88L1040 102L1048 127L1028 112L1008 127L1016 102L996 88L1020 88L1028 63Z" fill="#556B2F"/>

  <text x="78" y="112" fill="#F5F5F5" font-family="Segoe UI, Arial, sans-serif" font-size="56" font-weight="800">Chicago Tech</text>
  <text x="78" y="164" fill="#D2B48C" font-family="Segoe UI, Arial, sans-serif" font-size="42" font-weight="700">Army Themed</text>
  <text x="78" y="216" fill="#F5F5F5" font-family="Segoe UI, Arial, sans-serif" font-size="24" font-weight="500">WPF • SQLite • LocalDB • C# • .NET</text>
  <text x="78" y="252" fill="#F5F5F5" font-family="Segoe UI, Arial, sans-serif" font-size="30" font-weight="600">Military Gear Inventory</text>

  <rect x="78" y="266" width="240" height="8" rx="4" fill="#D2B48C"/>
  <path d="M72 54H1128" stroke="#D2B48C" stroke-opacity="0.45" stroke-width="2" stroke-dasharray="10 10"/>
</svg>
